<mxfile host="app.diagrams.net" modified="2022-09-23T02:20:20.646Z" agent="5.0 (Macintosh; Intel Mac OS X 10_15_7) AppleWebKit/537.36 (KHTML, like Gecko) Chrome/105.0.0.0 Safari/537.36" etag="_RM4bAjiGntZvjPyaecL" version="20.3.3" type="github">
  <diagram id="JptjXoEkWHTV2VQ5XntC" name="第 1 页">
    <mxGraphModel dx="930" dy="528" grid="1" gridSize="10" guides="1" tooltips="1" connect="1" arrows="1" fold="1" page="1" pageScale="1" pageWidth="827" pageHeight="1169" math="0" shadow="0">
      <root>
        <mxCell id="0" />
        <mxCell id="1" parent="0" />
        <mxCell id="Mqlbh3Q9kYg-rrgHjCD8-1" value="用户端" style="rounded=1;whiteSpace=wrap;html=1;" vertex="1" parent="1">
          <mxGeometry x="340" y="50" width="120" height="60" as="geometry" />
        </mxCell>
        <mxCell id="Mqlbh3Q9kYg-rrgHjCD8-5" style="edgeStyle=orthogonalEdgeStyle;rounded=0;orthogonalLoop=1;jettySize=auto;html=1;exitX=0.5;exitY=1;exitDx=0;exitDy=0;entryX=0.5;entryY=0;entryDx=0;entryDy=0;" edge="1" parent="1" source="Mqlbh3Q9kYg-rrgHjCD8-2" target="Mqlbh3Q9kYg-rrgHjCD8-4">
          <mxGeometry relative="1" as="geometry" />
        </mxCell>
        <mxCell id="Mqlbh3Q9kYg-rrgHjCD8-2" value="请求域名" style="rounded=1;whiteSpace=wrap;html=1;" vertex="1" parent="1">
          <mxGeometry x="340" y="160" width="120" height="60" as="geometry" />
        </mxCell>
        <mxCell id="Mqlbh3Q9kYg-rrgHjCD8-3" value="" style="endArrow=classic;html=1;rounded=0;entryX=0.5;entryY=0;entryDx=0;entryDy=0;exitX=0.5;exitY=1;exitDx=0;exitDy=0;" edge="1" parent="1" source="Mqlbh3Q9kYg-rrgHjCD8-1" target="Mqlbh3Q9kYg-rrgHjCD8-2">
          <mxGeometry width="50" height="50" relative="1" as="geometry">
            <mxPoint x="390" y="210" as="sourcePoint" />
            <mxPoint x="440" y="160" as="targetPoint" />
          </mxGeometry>
        </mxCell>
        <mxCell id="Mqlbh3Q9kYg-rrgHjCD8-4" value="CLB" style="rounded=1;whiteSpace=wrap;html=1;" vertex="1" parent="1">
          <mxGeometry x="340" y="270" width="120" height="60" as="geometry" />
        </mxCell>
      </root>
    </mxGraphModel>
  </diagram>
</mxfile>
